<mxfile host="app.diagrams.net" agent="Mozilla/5.0 (Windows NT 10.0; Win64; x64) AppleWebKit/537.36 (KHTML, like Gecko) Chrome/132.0.0.0 Safari/537.36" version="26.0.11">
  <diagram name="Página-1" id="g-PJHpZrzHhpaFNeCVO2">
    <mxGraphModel dx="1509" dy="777" grid="1" gridSize="10" guides="1" tooltips="1" connect="1" arrows="1" fold="1" page="1" pageScale="1" pageWidth="827" pageHeight="1169" math="0" shadow="0">
      <root>
        <mxCell id="0" />
        <mxCell id="1" parent="0" />
        <mxCell id="6HIbbkekOiTuZHocWPUJ-23" value="" style="edgeStyle=orthogonalEdgeStyle;rounded=0;orthogonalLoop=1;jettySize=auto;html=1;" edge="1" parent="1" source="6HIbbkekOiTuZHocWPUJ-12" target="6HIbbkekOiTuZHocWPUJ-10">
          <mxGeometry relative="1" as="geometry" />
        </mxCell>
        <mxCell id="6HIbbkekOiTuZHocWPUJ-12" value="" style="rounded=1;whiteSpace=wrap;html=1;" vertex="1" parent="1">
          <mxGeometry x="120" y="180" width="270" height="360" as="geometry" />
        </mxCell>
        <mxCell id="6HIbbkekOiTuZHocWPUJ-20" value="" style="rounded=1;whiteSpace=wrap;html=1;" vertex="1" parent="1">
          <mxGeometry x="260" y="260" width="120" height="240" as="geometry" />
        </mxCell>
        <mxCell id="6HIbbkekOiTuZHocWPUJ-10" value="" style="rounded=1;whiteSpace=wrap;html=1;" vertex="1" parent="1">
          <mxGeometry x="421.5" y="90" width="299" height="540" as="geometry" />
        </mxCell>
        <mxCell id="6HIbbkekOiTuZHocWPUJ-4" value="Amazon DynamoDB" style="sketch=0;outlineConnect=0;fontColor=#232F3E;gradientColor=none;strokeColor=#ffffff;fillColor=#232F3E;dashed=0;verticalLabelPosition=middle;verticalAlign=bottom;align=center;html=1;whiteSpace=wrap;fontSize=10;fontStyle=1;spacing=3;shape=mxgraph.aws4.productIcon;prIcon=mxgraph.aws4.dynamodb;" vertex="1" parent="1">
          <mxGeometry x="531" y="300" width="80" height="110" as="geometry" />
        </mxCell>
        <mxCell id="6HIbbkekOiTuZHocWPUJ-5" value="Amazon S3" style="sketch=0;outlineConnect=0;fontColor=#232F3E;gradientColor=none;strokeColor=#ffffff;fillColor=#232F3E;dashed=0;verticalLabelPosition=middle;verticalAlign=bottom;align=center;html=1;whiteSpace=wrap;fontSize=10;fontStyle=1;spacing=3;shape=mxgraph.aws4.productIcon;prIcon=mxgraph.aws4.s3;" vertex="1" parent="1">
          <mxGeometry x="531" y="160" width="80" height="100" as="geometry" />
        </mxCell>
        <mxCell id="6HIbbkekOiTuZHocWPUJ-6" value="Amazon Simple Email Service" style="sketch=0;outlineConnect=0;fontColor=#232F3E;gradientColor=none;strokeColor=#ffffff;fillColor=#232F3E;dashed=0;verticalLabelPosition=middle;verticalAlign=bottom;align=center;html=1;whiteSpace=wrap;fontSize=10;fontStyle=1;spacing=3;shape=mxgraph.aws4.productIcon;prIcon=mxgraph.aws4.simple_email_service;" vertex="1" parent="1">
          <mxGeometry x="531" y="460" width="80" height="110" as="geometry" />
        </mxCell>
        <mxCell id="6HIbbkekOiTuZHocWPUJ-22" value="" style="edgeStyle=orthogonalEdgeStyle;rounded=0;orthogonalLoop=1;jettySize=auto;html=1;" edge="1" parent="1" source="6HIbbkekOiTuZHocWPUJ-7" target="6HIbbkekOiTuZHocWPUJ-19">
          <mxGeometry relative="1" as="geometry" />
        </mxCell>
        <mxCell id="6HIbbkekOiTuZHocWPUJ-7" value="Usuário&lt;div&gt;&lt;br&gt;&lt;/div&gt;" style="shape=umlActor;verticalLabelPosition=bottom;verticalAlign=top;html=1;outlineConnect=0;" vertex="1" parent="1">
          <mxGeometry x="30" y="325" width="30" height="60" as="geometry" />
        </mxCell>
        <mxCell id="6HIbbkekOiTuZHocWPUJ-11" value="AWS" style="text;html=1;align=center;verticalAlign=middle;whiteSpace=wrap;rounded=0;" vertex="1" parent="1">
          <mxGeometry x="650" y="100" width="60" height="30" as="geometry" />
        </mxCell>
        <mxCell id="6HIbbkekOiTuZHocWPUJ-15" value="" style="aspect=fixed;sketch=0;html=1;dashed=0;whitespace=wrap;verticalLabelPosition=bottom;verticalAlign=top;fillColor=#2875E2;strokeColor=#ffffff;points=[[0.005,0.63,0],[0.1,0.2,0],[0.9,0.2,0],[0.5,0,0],[0.995,0.63,0],[0.72,0.99,0],[0.5,1,0],[0.28,0.99,0]];shape=mxgraph.kubernetes.icon2;prIcon=hpa" vertex="1" parent="1">
          <mxGeometry x="240" y="232" width="50" height="48" as="geometry" />
        </mxCell>
        <mxCell id="6HIbbkekOiTuZHocWPUJ-16" value="" style="aspect=fixed;sketch=0;html=1;dashed=0;whitespace=wrap;verticalLabelPosition=bottom;verticalAlign=top;fillColor=#2875E2;strokeColor=#ffffff;points=[[0.005,0.63,0],[0.1,0.2,0],[0.9,0.2,0],[0.5,0,0],[0.995,0.63,0],[0.72,0.99,0],[0.5,1,0],[0.28,0.99,0]];shape=mxgraph.kubernetes.icon2;kubernetesLabel=1;prIcon=pod" vertex="1" parent="1">
          <mxGeometry x="300" y="280" width="50" height="48" as="geometry" />
        </mxCell>
        <mxCell id="6HIbbkekOiTuZHocWPUJ-17" value="" style="aspect=fixed;sketch=0;html=1;dashed=0;whitespace=wrap;verticalLabelPosition=bottom;verticalAlign=top;fillColor=#2875E2;strokeColor=#ffffff;points=[[0.005,0.63,0],[0.1,0.2,0],[0.9,0.2,0],[0.5,0,0],[0.995,0.63,0],[0.72,0.99,0],[0.5,1,0],[0.28,0.99,0]];shape=mxgraph.kubernetes.icon2;kubernetesLabel=1;prIcon=pod" vertex="1" parent="1">
          <mxGeometry x="300" y="350" width="50" height="48" as="geometry" />
        </mxCell>
        <mxCell id="6HIbbkekOiTuZHocWPUJ-18" value="" style="aspect=fixed;sketch=0;html=1;dashed=0;whitespace=wrap;verticalLabelPosition=bottom;verticalAlign=top;fillColor=#2875E2;strokeColor=#ffffff;points=[[0.005,0.63,0],[0.1,0.2,0],[0.9,0.2,0],[0.5,0,0],[0.995,0.63,0],[0.72,0.99,0],[0.5,1,0],[0.28,0.99,0]];shape=mxgraph.kubernetes.icon2;kubernetesLabel=1;prIcon=pod" vertex="1" parent="1">
          <mxGeometry x="300" y="430" width="50" height="48" as="geometry" />
        </mxCell>
        <mxCell id="6HIbbkekOiTuZHocWPUJ-19" value="" style="aspect=fixed;sketch=0;html=1;dashed=0;whitespace=wrap;verticalLabelPosition=bottom;verticalAlign=top;fillColor=#2875E2;strokeColor=#ffffff;points=[[0.005,0.63,0],[0.1,0.2,0],[0.9,0.2,0],[0.5,0,0],[0.995,0.63,0],[0.72,0.99,0],[0.5,1,0],[0.28,0.99,0]];shape=mxgraph.kubernetes.icon2;kubernetesLabel=1;prIcon=k_proxy" vertex="1" parent="1">
          <mxGeometry x="120" y="336" width="50" height="48" as="geometry" />
        </mxCell>
        <mxCell id="6HIbbkekOiTuZHocWPUJ-24" value="Aplicação Frame Extractor" style="text;html=1;align=center;verticalAlign=middle;whiteSpace=wrap;rounded=0;" vertex="1" parent="1">
          <mxGeometry x="170" y="180" width="170" height="30" as="geometry" />
        </mxCell>
        <mxCell id="6HIbbkekOiTuZHocWPUJ-25" style="edgeStyle=orthogonalEdgeStyle;rounded=0;orthogonalLoop=1;jettySize=auto;html=1;entryX=0.005;entryY=0.63;entryDx=0;entryDy=0;entryPerimeter=0;" edge="1" parent="1" source="6HIbbkekOiTuZHocWPUJ-19" target="6HIbbkekOiTuZHocWPUJ-15">
          <mxGeometry relative="1" as="geometry" />
        </mxCell>
      </root>
    </mxGraphModel>
  </diagram>
</mxfile>
